name rise34.3697peak60.0498fall86.3158.mot
datacolumns 19
datarows 26
range 10.03329300000000 10.07496400000000
endheader
time	ground_force1_vx	ground_force1_vy	ground_force1_vz	ground_force1_px	ground_force1_py	ground_force1_pz	ground_force2_vx	ground_force2_vy	ground_force2_vz	ground_force2_px	ground_force2_py	ground_force2_pz	ground_torque1_x	ground_torque1_y	ground_torque1_z	ground_torque2_x	ground_torque2_y	ground_torque2_z	
10.03329300000000	-5.43248100000000	41.58902400000000	-5.45870300000000	0.41589700000000	0.00000000000000	0.11903500000000	-45.83003600000000	808.52959699999997	-61.74609900000000	0.21650800000000	0.00000000000000	-0.07339700000000	0.00000000000000	-4.36633200000000	0.00000000000000	0.00000000000000	-32.04357000000000	0.00000000000000	
10.03496300000000	-5.97900000000000	48.82323500000000	-6.10600400000000	0.41701000000000	0.00000000000000	0.12010300000000	-46.34041200000000	805.77631799999995	-61.47011900000000	0.21551800000000	0.00000000000000	-0.07330700000000	0.00000000000000	-4.90591300000000	0.00000000000000	0.00000000000000	-31.86459700000000	0.00000000000000	
10.03663200000000	-6.42473500000000	56.16678300000000	-6.68113000000000	0.41807400000000	0.00000000000000	0.12105700000000	-46.86353900000000	802.87170300000002	-61.16930100000000	0.21451800000000	0.00000000000000	-0.07321400000000	0.00000000000000	-5.39605900000000	0.00000000000000	0.00000000000000	-31.67931300000000	0.00000000000000	
10.03829900000000	-6.75338200000000	63.52572200000000	-7.16897000000000	0.41910300000000	0.00000000000000	0.12191600000000	-47.39909500000000	799.81425800000000	-60.84335400000000	0.21350900000000	0.00000000000000	-0.07311900000000	0.00000000000000	-5.82556900000000	0.00000000000000	0.00000000000000	-31.48777100000000	0.00000000000000	
10.03996500000000	-6.95436900000000	70.82819100000000	-7.55946600000000	0.42010900000000	0.00000000000000	0.12269300000000	-47.94667400000000	796.60250099999996	-60.49201000000000	0.21249100000000	0.00000000000000	-0.07302100000000	0.00000000000000	-6.18712200000000	0.00000000000000	0.00000000000000	-31.29002000000000	0.00000000000000	
10.04162400000000	-7.02284900000000	78.02669500000000	-7.84767200000000	0.42110100000000	0.00000000000000	0.12340200000000	-48.50578700000000	793.23496599999999	-60.11502200000000	0.21146600000000	0.00000000000000	-0.07292100000000	0.00000000000000	-6.47730900000000	0.00000000000000	0.00000000000000	-31.08610500000000	0.00000000000000	
10.04329600000000	-6.95923000000000	85.09801000000000	-8.03336800000000	0.42208500000000	0.00000000000000	0.12405100000000	-49.07586000000000	789.71020799999997	-59.71216800000000	0.21043400000000	0.00000000000000	-0.07281700000000	0.00000000000000	-6.69634000000000	0.00000000000000	0.00000000000000	-30.87607000000000	0.00000000000000	
10.04496400000000	-6.76836400000000	92.04110500000000	-8.12037100000000	0.42306800000000	0.00000000000000	0.12464800000000	-49.65623100000000	786.02680399999997	-59.28325300000000	0.20939600000000	0.00000000000000	-0.07271000000000	0.00000000000000	-6.84749900000000	0.00000000000000	0.00000000000000	-30.65995000000000	0.00000000000000	
10.04662400000000	-6.45851600000000	98.87359100000000	-8.11562100000000	0.42405300000000	0.00000000000000	0.12520000000000	-50.24614900000000	782.18335900000000	-58.82810900000000	0.20835400000000	0.00000000000000	-0.07260100000000	0.00000000000000	-6.93644000000000	0.00000000000000	0.00000000000000	-30.43778100000000	0.00000000000000	
10.04829300000000	-6.04024400000000	105.62726200000000	-8.02818000000000	0.42504400000000	0.00000000000000	0.12571200000000	-50.84477800000000	778.17851199999996	-58.34659800000000	0.20730700000000	0.00000000000000	-0.07248800000000	0.00000000000000	-6.97040900000000	0.00000000000000	0.00000000000000	-30.20959100000000	0.00000000000000	
10.04995700000000	-5.52528900000000	112.34324800000000	-7.86822700000000	0.42604300000000	0.00000000000000	0.12618800000000	-51.45119100000000	774.01094499999999	-57.83861500000000	0.20625800000000	0.00000000000000	-0.07237200000000	0.00000000000000	-6.95746500000000	0.00000000000000	0.00000000000000	-29.97540700000000	0.00000000000000	
10.05163300000000	-4.92557200000000	119.06724100000000	-7.64614300000000	0.42705300000000	0.00000000000000	0.12663300000000	-52.06437700000000	769.67938100000003	-57.30408800000000	0.20520700000000	0.00000000000000	-0.07225200000000	0.00000000000000	-6.90577200000000	0.00000000000000	0.00000000000000	-29.73524900000000	0.00000000000000	
10.05329700000000	-4.25234900000000	125.84516600000001	-7.37173300000000	0.42807400000000	0.00000000000000	0.12705000000000	-52.68323600000000	765.18259799999998	-56.74298200000000	0.20415500000000	0.00000000000000	-0.07212900000000	0.00000000000000	-6.82299400000000	0.00000000000000	0.00000000000000	-29.48913500000000	0.00000000000000	
10.05495800000000	-3.51558100000000	132.71956299999999	-7.05363200000000	0.42910800000000	0.00000000000000	0.12744100000000	-53.30658200000000	760.51943400000005	-56.15529900000000	0.20310400000000	0.00000000000000	-0.07200200000000	0.00000000000000	-6.71583300000000	0.00000000000000	0.00000000000000	-29.23707700000000	0.00000000000000	
10.05663000000000	-2.72350900000000	139.72682100000000	-6.69890000000000	0.43015500000000	0.00000000000000	0.12780900000000	-53.93314500000000	755.68879600000002	-55.54108300000000	0.20205500000000	0.00000000000000	-0.07187100000000	0.00000000000000	-6.58971700000000	0.00000000000000	0.00000000000000	-28.97908500000000	0.00000000000000	
10.05829700000000	-1.88245000000000	146.89535200000000	-6.31281700000000	0.43121500000000	0.00000000000000	0.12815600000000	-54.56157600000000	750.68966599999999	-54.90041900000000	0.20100900000000	0.00000000000000	-0.07173600000000	0.00000000000000	-6.44863400000000	0.00000000000000	0.00000000000000	-28.71516500000000	0.00000000000000	
10.05996400000000	-0.99677200000000	154.24463900000001	-5.89884200000000	0.43229000000000	0.00000000000000	0.12848500000000	-55.19044100000000	745.52111200000002	-54.23343500000000	0.19996800000000	0.00000000000000	-0.07159700000000	0.00000000000000	-6.29510600000000	0.00000000000000	0.00000000000000	-28.44531900000000	0.00000000000000	
10.06163200000000	-0.06903400000000	161.78510800000001	-5.45872200000000	0.43337700000000	0.00000000000000	0.12879500000000	-55.81823500000000	740.18229899999994	-53.54030800000000	0.19893200000000	0.00000000000000	-0.07145400000000	0.00000000000000	-6.13026800000000	0.00000000000000	0.00000000000000	-28.16954600000000	0.00000000000000	
10.06329500000000	0.89976000000000	169.51865200000000	-4.99271100000000	0.43447800000000	0.00000000000000	0.12909000000000	-56.44337300000000	734.67249800000002	-52.82126000000000	0.19790400000000	0.00000000000000	-0.07130700000000	0.00000000000000	-5.95404100000000	0.00000000000000	0.00000000000000	-27.88784200000000	0.00000000000000	
10.06496300000000	1.90982800000000	177.43967000000001	-4.49986200000000	0.43559100000000	0.00000000000000	0.12937000000000	-57.06420300000000	728.99109899999996	-52.07656200000000	0.19688500000000	0.00000000000000	-0.07115500000000	0.00000000000000	-5.76535800000000	0.00000000000000	0.00000000000000	-27.60020100000000	0.00000000000000	
10.06663200000000	2.96224100000000	185.53643600000001	-3.97836000000000	0.43671600000000	0.00000000000000	0.12963600000000	-57.67900700000000	723.13762099999997	-51.30653600000000	0.19587600000000	0.00000000000000	-0.07099800000000	0.00000000000000	-5.56242800000000	0.00000000000000	0.00000000000000	-27.30661300000000	0.00000000000000	
10.06830600000000	4.05854900000000	193.79264000000001	-3.42585700000000	0.43785300000000	0.00000000000000	0.12988900000000	-58.28600200000000	717.11172799999997	-50.51155600000000	0.19487900000000	0.00000000000000	-0.07083600000000	0.00000000000000	-5.34299900000000	0.00000000000000	0.00000000000000	-27.00706700000000	0.00000000000000	
10.06996000000000	5.20043300000000	202.18895699999999	-2.83979800000000	0.43899900000000	0.00000000000000	0.13013100000000	-58.88334800000000	710.91323999999997	-49.69204600000000	0.19389500000000	0.00000000000000	-0.07067000000000	0.00000000000000	-5.10461200000000	0.00000000000000	0.00000000000000	-26.70155000000000	0.00000000000000	
10.07163000000000	6.38940300000000	210.70451499999999	-2.21769600000000	0.44015400000000	0.00000000000000	0.13036100000000	-59.46915000000000	704.54214500000000	-48.84848500000000	0.19292700000000	0.00000000000000	-0.07049800000000	0.00000000000000	-4.84482500000000	0.00000000000000	0.00000000000000	-26.39004600000000	0.00000000000000	
10.07330900000000	7.62655700000000	219.31819200000001	-1.55736400000000	0.44131700000000	0.00000000000000	0.13058200000000	-60.04146700000000	697.99861499999997	-47.98140400000000	0.19197400000000	0.00000000000000	-0.07032200000000	0.00000000000000	-4.56139300000000	0.00000000000000	0.00000000000000	-26.07253800000000	0.00000000000000	
10.07496400000000	8.91240100000000	228.00965700000000	-0.85708200000000	0.44248600000000	0.00000000000000	0.13079200000000	-60.59831200000000	691.28301999999996	-47.09138800000000	0.19104000000000	0.00000000000000	-0.07014000000000	0.00000000000000	-4.25241100000000	0.00000000000000	0.00000000000000	-25.74900800000000	0.00000000000000	
